<?xml version="1.0"?>
<svg width="409" height="409" xmlns="http://www.w3.org/2000/svg" xmlns:svg="http://www.w3.org/2000/svg" version="1.1">

 <g class="layer" display="inline">
  <circle id="ball-bg" cx="147" cy="294" fill="#000000" r="18" transform="matrix(1, 0, 0, 1, 0, 0) matrix(11.1937, 0, 0, 11.1937, -1441.34, -3086.48)"/>
  <path id="ball-lines" d="m369.92,90.08c-24.18,-1.01 -59.66,2.01 -91.9,21.94c-0.11,0.11 -0.22,0.11 -0.34,0.11c-0.22,0.11 -0.34,0.34 -0.56,0.56c-24.07,15 -46.23,39.51 -60.56,78.92c-26.86,-0.56 -51.16,-3.25 -72.65,-7.95c46.68,-134.44 147.2,-137.79 191.19,-132.09c-10.19,-8.73 -21.27,-16.57 -33.02,-23.06c-56.75,2.69 -138.8,29.22 -179.77,149.21c-20.15,-6.49 -37.16,-15.11 -50.82,-25.86c0.56,-0.9 1.12,-1.79 1.46,-2.8c37.16,-112.83 136.56,-137.91 166,-142.83c-11.31,-2.01 -22.95,-3.25 -34.81,-3.25c-11.64,0 -22.95,1.23 -34.03,3.13c-41.75,20.48 -90.45,58.66 -115.86,128.84c-12.43,-15.34 -17.24,-30.34 -19.03,-40.07c-5.6,8.62 -10.52,17.69 -14.78,27.2c4.7,10.97 11.98,23.17 23.39,35.04c35.48,37.05 95.15,56.08 176.97,56.98c7.16,25.07 10.86,48.02 11.87,68.84c-131.08,4.7 -197.46,-49.36 -229.36,-92.57c-0.34,4.7 -0.67,9.29 -0.67,14.1c0,6.6 0.34,13.1 1.01,19.59c38.28,40.52 104.1,81.6 213.91,81.6c5.04,0 10.19,-0.11 15.34,-0.34c-0.78,21.6 -4.25,40.63 -9.18,56.98c-106.68,-2.8 -167.23,-37.61 -200.7,-69.96c10.41,21.38 24.4,40.75 41.42,57.09c36.6,18.69 85.97,32.57 151.9,33.92c-3.58,8.51 -7.39,16.01 -11.08,22.5c8.95,0 17.69,-0.78 26.31,-2.01c20.48,-41.98 37.05,-109.14 9.4,-200.7l-2.13,-6.94c10.19,-26.42 24.4,-44.89 40.19,-57.54c49.92,101.64 23.51,198.13 -1.12,253.2c10.52,-4.14 20.48,-9.18 30.11,-15c22.72,-61.57 38.39,-153.8 -10.19,-250.52c15.78,-8.17 31.9,-11.98 46.45,-13.54c0.11,0.11 0.11,0.34 0.11,0.45c48.13,75 26.98,168.69 -0.78,236.41c17.91,-17.13 32.57,-37.61 43.1,-60.45c15.67,-67.83 10.07,-128.28 -16.9,-177.08c5.37,0.34 10.19,0.78 13.99,1.34c-4.14,-8.06 -8.73,-16.01 -13.88,-23.39z" fill="#99AAB5"/>
  <ellipse id="digit-bg" cx="203.38" cy="213.86" fill="#000000" rx="132.38" ry="132.38" stroke="null" stroke-dasharray="null" stroke-linecap="null" stroke-linejoin="null" stroke-opacity="null" stroke-width="null" transform="matrix(1, 0, 0, 1, 0, 0)"/>
  <g id="digits" transform="matrix(1.12619, 0, 0, 1.12619, -13.983, 15.2376)">
   <path d="m269.69,92.36l8,8l-8,8l-52,0l-8,-8l8,-8l52,0z" fill="#ff0000" id="svg_16"/>
   <path d="m271.69,182.36l8,-8l8,8l0,52l-8,8l-8,-8l0,-52z" fill="#ff0000" id="svg_14"/>
   <path d="m269.69,236.36l8,8l-8,8l-52,0l-8,-8l8,-8l52,0z" fill="#ff0000" id="svg_13"/>
   <path d="m199.69,110.36l8,-8l8,8l0,52l-8,8l-8,-8l0,-52z" fill="#ff0000" id="svg_11"/>
   <path d="m269.69,164.36l8,8l-8,8l-52,0l-8,-8l8,-8l52,0z" fill="#ff0000" id="svg_10"/>
   <path d="m166.19,92.36l8,8l-8,8l-52,0l-8,-8l8,-8l52,0z" fill="#ff0000" id="svg_3"/>
   <path d="m168.19,110.36l8,-8l8,8l0,52l-8,8l-8,-8l0,-52z" fill="#ff0000" id="svg_4"/>
   <path d="m166.19,236.36l8,8l-8,8l-52,0l-8,-8l8,-8l52,0z" fill="#ff0000" id="svg_6"/>
   <path d="m96.19,182.36l8,-8l8,8l0,52l-8,8l-8,-8l0,-52z" fill="#ff0000" id="svg_7"/>
   <path d="m166.19,164.36l8,8l-8,8l-52,0l-8,-8l8,-8l52,0z" fill="#ff0000" id="svg_9"/>
  </g>
 </g>
</svg>
